HIERARCHY
ROOT Hips
{
	OFFSET -0.001795 -0.223333 0.028219
	CHANNELS 6 Xposition Yposition Zposition Zrotation Yrotation Xrotation 
	JOINT LeftUpLeg
	{
		OFFSET 0.069520 -0.091406 -0.006815
		CHANNELS 3 Zrotation Yrotation Xrotation
		JOINT LeftLeg
		{
			OFFSET 0.034277 -0.375199 -0.004496
			CHANNELS 3 Zrotation Yrotation Xrotation
			JOINT LeftFoot
			{
				OFFSET -0.013596 -0.397961 -0.043693
				CHANNELS 3 Zrotation Yrotation Xrotation
				JOINT LeftToe
				{
					OFFSET 0.026358 -0.055791 0.119288
					CHANNELS 3 Zrotation Yrotation Xrotation
					End Site
					{
						OFFSET 0.000000 0.000000 0.000000
					}
				}
			}
		}
	}
	JOINT RightUpLeg
	{
		OFFSET -0.067670 -0.090522 -0.004320
		CHANNELS 3 Zrotation Yrotation Xrotation
		JOINT RightLeg
		{
			OFFSET -0.038290 -0.382569 -0.008850
			CHANNELS 3 Zrotation Yrotation Xrotation
			JOINT RightFoot
			{
				OFFSET 0.015774 -0.398415 -0.042312
				CHANNELS 3 Zrotation Yrotation Xrotation
				JOINT RightToe
				{
					OFFSET -0.025372 -0.048144 0.123348
					CHANNELS 3 Zrotation Yrotation Xrotation
					End Site
					{
						OFFSET 0.000000 0.000000 0.000000
					}
				}
			}
		}
	}
	JOINT Spine
	{
		OFFSET -0.002533 0.108963 -0.026696
		CHANNELS 3 Zrotation Yrotation Xrotation
		JOINT Spine1
		{
			OFFSET 0.005487 0.135180 0.001092
			CHANNELS 3 Zrotation Yrotation Xrotation
			JOINT Spine2
			{
				OFFSET 0.001457 0.052922 0.025425
				CHANNELS 3 Zrotation Yrotation Xrotation
				JOINT Neck
				{
					OFFSET -0.002778 0.213870 -0.042857
					CHANNELS 3 Zrotation Yrotation Xrotation
					JOINT Head
					{
						OFFSET 0.005152 0.064970 0.051349
						CHANNELS 3 Zrotation Yrotation Xrotation
						End Site
						{
							OFFSET 0.000000 0.000000 0.000000
						}
					}
				}
				JOINT LeftShoulder
				{
					OFFSET 0.078845 0.121749 -0.034090
					CHANNELS 3 Zrotation Yrotation Xrotation
					JOINT LeftArm
					{
						OFFSET 0.090977 0.030469 -0.008868
						CHANNELS 3 Zrotation Yrotation Xrotation
						JOINT LeftForeArm
						{
							OFFSET 0.259612 -0.012772 -0.027456
							CHANNELS 3 Zrotation Yrotation Xrotation
							JOINT LeftHand
							{
								OFFSET 0.249234 0.008986 -0.001171
								CHANNELS 3 Zrotation Yrotation Xrotation
								End Site
								{
									OFFSET 0.000000 0.000000 0.000000
								}
							}
						}
					}
				}
				JOINT RightShoulder
				{
					OFFSET -0.081759 0.118833 -0.038615
					CHANNELS 3 Zrotation Yrotation Xrotation
					JOINT RightArm
					{
						OFFSET -0.096012 0.032551 -0.009143
						CHANNELS 3 Zrotation Yrotation Xrotation
						JOINT RightForeArm
						{
							OFFSET -0.253742 -0.013329 -0.021401
							CHANNELS 3 Zrotation Yrotation Xrotation
							JOINT RightHand
							{
								OFFSET -0.255298 0.007772 -0.005559
								CHANNELS 3 Zrotation Yrotation Xrotation
								End Site
								{
									OFFSET 0.000000 0.000000 0.000000
								}
							}
						}
					}
				}
			}
		}
	}
}
MOTION
Frames: 17
Frame Time: 0.050000
0.132200 0.696683 0.285614 -1.338633 11.156368 2.449415 34.982379 2.514593 -26.061917 -9.996664 1.774396 71.492431 5.470698 10.303025 -5.280428 0.000000 0.000000 0.000000 -18.405636 -8.534639 -62.079056 5.843386 -4.299468 66.617847 -3.618615 -8.145135 -2.225466 0.000000 0.000000 0.000000 -7.234249 -2.827769 67.914020 14.327352 -2.450670 -25.332318 7.523289 16.042147 31.701748 -7.304551 7.738223 -40.586971 0.000000 0.000000 0.000000 -24.051949 -4.317500 -5.105040 -16.892724 -4.114567 -1.454798 22.639706 -62.528063 -14.389133 0.000000 0.000000 0.000000 3.636143 18.602480 8.278330 27.072865 23.944942 0.666191 -52.428797 33.228004 -10.873162 0.000000 0.000000 0.000000 
0.107043 0.708880 0.326642 -0.636611 12.738620 3.945709 37.402804 2.685045 -27.688916 -8.651482 0.443793 71.514411 0.615119 4.309223 7.073204 0.000000 0.000000 0.000000 -18.083938 -8.424089 -59.618668 5.294781 -4.656506 68.313014 -4.206727 -8.605539 -6.147810 0.000000 0.000000 0.000000 -6.770065 -3.485512 65.573138 16.017198 -2.828261 -25.022378 7.081021 17.457523 30.784689 -9.554127 9.110064 -38.606256 0.000000 0.000000 0.000000 -26.996018 -4.555704 -6.565091 -13.184293 -2.208140 -1.142141 10.096585 -64.386425 -6.586480 0.000000 0.000000 0.000000 6.413412 20.004270 10.198583 20.680437 23.927359 -0.196528 -51.546987 31.187286 -10.129125 0.000000 0.000000 0.000000 
0.087416 0.727179 0.364291 0.207895 12.463144 3.832547 37.911802 3.337877 -30.100026 -10.570020 2.416101 73.755002 -0.017313 4.272621 10.326554 0.000000 0.000000 0.000000 -17.288973 -7.010346 -55.708819 4.378149 -4.226962 69.019987 -4.400210 -8.344447 -9.111421 0.000000 0.000000 0.000000 -8.098917 -2.483559 65.818987 16.224063 -2.819996 -25.397352 8.685873 20.525892 29.902659 -7.070434 8.909874 -33.979574 0.000000 0.000000 0.000000 -27.826975 -5.707845 -7.364501 -10.559095 -0.403575 -0.838962 -2.144805 -68.125180 1.264660 0.000000 0.000000 0.000000 6.376726 21.146651 11.024808 17.453955 22.432397 -0.516011 -47.119782 30.048727 -8.758165 0.000000 0.000000 0.000000 
0.075341 0.744353 0.396012 1.015985 12.168552 3.119918 37.467978 4.175032 -34.201208 -15.014968 6.807833 75.418752 2.110979 7.455638 8.902598 0.000000 0.000000 0.000000 -15.959223 -5.570964 -52.161448 3.616703 -3.739994 68.598230 -5.434384 -11.144131 -10.887657 0.000000 0.000000 0.000000 -9.147904 -1.664415 65.833999 15.283599 -2.438193 -26.513830 10.707069 20.933047 31.464439 -6.589802 8.850453 -35.025582 0.000000 0.000000 0.000000 -25.718268 -4.428097 -7.601532 -10.091038 -1.628500 -0.777592 -7.686019 -70.566117 4.651340 0.000000 0.000000 0.000000 4.425489 23.231865 11.056392 16.316882 22.702904 -0.405459 -42.910570 27.596637 -7.094780 0.000000 0.000000 0.000000 
0.070919 0.758889 0.421964 1.362623 13.143859 1.989044 35.407079 4.220843 -38.348241 -17.651506 8.467002 72.839470 4.199489 10.416075 5.485129 0.000000 0.000000 0.000000 -15.433717 -4.970280 -48.105782 2.939887 -3.678070 67.717873 -5.666887 -11.944294 -10.950900 0.000000 0.000000 0.000000 -9.423979 -1.938049 66.956118 15.448468 -2.343974 -27.401111 11.859314 22.468249 32.761444 -5.990702 9.160455 -33.981849 0.000000 0.000000 0.000000 -25.132782 -4.564190 -7.878258 -9.553934 -4.019959 -0.635500 -16.050745 -72.516422 10.615443 0.000000 0.000000 0.000000 2.073668 25.538755 10.960112 15.634117 22.835458 -0.179722 -38.549864 23.524737 -5.072002 0.000000 0.000000 0.000000 
0.074420 0.770910 0.443214 1.500406 12.382870 1.830720 34.470306 4.759624 -41.859058 -20.370115 10.108667 65.695731 5.779797 12.742046 1.590613 0.000000 0.000000 0.000000 -14.700152 -4.048340 -45.753291 2.465123 -3.168276 67.333756 -5.027029 -10.422394 -9.111115 0.000000 0.000000 0.000000 -10.641831 -0.846262 67.341331 15.005009 -2.230914 -27.687063 14.474859 24.732004 33.490215 -5.896850 9.375045 -34.269613 0.000000 0.000000 0.000000 -23.281947 -5.296547 -7.596770 -11.499740 -5.637372 -0.601774 -21.784763 -73.644520 14.450682 0.000000 0.000000 0.000000 -1.490796 26.127689 9.671015 19.214471 23.028114 0.561093 -36.315761 21.059343 -3.745195 0.000000 0.000000 0.000000 
0.086116 0.781330 0.461895 1.456790 11.175575 2.137136 32.039653 4.811666 -44.934063 -19.887154 8.987922 58.069872 5.304431 11.188336 -1.301019 0.000000 0.000000 0.000000 -14.445645 -3.476313 -44.634113 2.664802 -3.009152 67.114686 -4.958003 -10.671596 -7.329474 0.000000 0.000000 0.000000 -10.172541 -0.670030 66.651824 13.701593 -1.907936 -28.154182 16.151121 24.447671 34.831980 -7.974889 9.833403 -38.209784 0.000000 0.000000 0.000000 -21.620517 -5.382257 -6.867854 -16.872676 -7.200217 -0.788700 -25.037038 -72.927889 16.008018 0.000000 0.000000 0.000000 -4.313217 26.530313 8.442259 21.830087 23.709645 1.256690 -34.778424 19.691645 -3.126667 0.000000 0.000000 0.000000 
0.106655 0.783381 0.480815 1.255611 9.236529 1.219968 28.045648 4.038668 -44.244592 -14.722922 5.298518 52.482962 2.333120 2.933470 -4.932772 0.000000 0.000000 0.000000 -13.692893 -2.632150 -43.924978 1.834590 -1.727593 68.981599 -3.990118 -8.138555 -6.320110 0.000000 0.000000 0.000000 -10.850365 0.532835 67.089224 14.142623 -2.101214 -27.755671 16.472651 24.875996 34.967166 -6.222263 9.123473 -39.225599 0.000000 0.000000 0.000000 -22.214405 -7.182059 -6.079819 -20.791892 -6.537201 -0.988962 -29.971657 -71.883919 19.248808 0.000000 0.000000 0.000000 -3.189687 27.813736 9.369672 22.647287 22.898228 1.114807 -33.882133 18.665269 -2.901850 0.000000 0.000000 0.000000 
0.134724 0.777299 0.502388 0.174334 7.873964 0.314594 24.030005 3.093638 -44.395037 -10.055059 2.646287 54.757987 0.591359 -1.406812 -4.988789 0.000000 0.000000 0.000000 -13.851717 -2.297775 -42.743153 2.347693 -1.775831 70.830848 -3.782025 -7.028552 -7.725695 0.000000 0.000000 0.000000 -10.451918 0.781461 66.843399 14.622367 -2.155344 -28.293052 16.032291 23.608532 36.500319 -4.508143 8.459178 -38.089753 0.000000 0.000000 0.000000 -24.382728 -7.675279 -6.009330 -23.209565 -7.727804 -1.046594 -34.814628 -69.314719 22.313719 0.000000 0.000000 0.000000 -1.062089 29.653557 10.813943 24.910696 21.218339 0.676681 -37.211472 18.783741 -3.323732 0.000000 0.000000 0.000000 
0.166569 0.771602 0.524635 -0.077382 6.776582 -1.614530 19.128850 1.637168 -42.804986 -6.117546 0.011761 59.788932 2.265083 0.496552 -9.122853 0.000000 0.000000 0.000000 -14.785821 -2.374544 -41.455690 1.634205 -0.680572 72.951774 -3.087651 -4.203583 -9.221710 0.000000 0.000000 0.000000 -10.663014 1.335302 68.331704 15.430618 -2.552193 -27.329689 15.375494 22.726997 34.009376 -3.372885 7.636726 -37.452522 0.000000 0.000000 0.000000 -23.499883 -9.541206 -3.911759 -26.936623 -7.761263 -1.330862 -35.930946 -66.350028 21.950487 0.000000 0.000000 0.000000 1.359972 28.527504 11.399990 25.310289 23.694500 1.031763 -35.185930 19.542189 -3.508031 0.000000 0.000000 0.000000 
0.195686 0.779627 0.542680 -0.133685 6.224625 -2.200777 16.201808 0.753136 -41.404991 -5.349289 -0.598656 63.308443 2.874100 0.799345 -11.567439 0.000000 0.000000 0.000000 -16.137314 -2.664820 -40.105200 1.746579 -0.522625 74.218108 -1.561943 -0.973435 -6.306369 0.000000 0.000000 0.000000 -10.112521 1.213642 68.807087 18.010520 -3.401265 -26.050850 12.761730 22.151774 32.404509 -3.512285 7.633767 -36.234912 0.000000 0.000000 0.000000 -25.862032 -10.805380 -3.473182 -25.514614 -9.176840 -0.909730 -30.805852 -66.785057 19.276713 0.000000 0.000000 0.000000 3.692524 30.050299 13.044398 23.698749 24.603059 0.869454 -35.280203 17.752365 -3.224585 0.000000 0.000000 0.000000 
0.217136 0.808414 0.557046 -0.112058 4.818128 -1.613112 15.274896 0.662716 -37.842585 -5.115870 -0.250407 59.516681 1.947801 -0.375818 -9.268346 0.000000 0.000000 0.000000 -17.931834 -3.097985 -40.886603 4.995447 -2.898232 73.401193 0.012254 -0.109496 0.275153 0.000000 0.000000 0.000000 -8.005451 0.364288 66.389585 17.038164 -3.445679 -24.606466 10.833219 19.876652 31.753691 -2.310985 6.589768 -37.728767 0.000000 0.000000 0.000000 -22.377832 -10.758186 -1.731356 -28.512378 -11.993475 -0.885608 -30.354756 -70.412300 20.108026 0.000000 0.000000 0.000000 3.062240 28.701878 12.045582 25.361434 28.297681 1.819966 -35.081221 16.999283 -2.987706 0.000000 0.000000 0.000000 
0.225862 0.852235 0.570357 0.445389 2.201874 0.271112 15.568373 1.050852 -34.374571 -7.364774 2.065395 51.911191 1.411344 0.763316 -4.907128 0.000000 0.000000 0.000000 -20.309625 -3.528438 -42.921534 10.162586 -6.280829 70.154955 -0.192537 -4.293156 9.001773 0.000000 0.000000 0.000000 -6.854497 0.644207 62.256538 17.022105 -3.768277 -22.717374 10.839488 18.005470 31.836064 -4.025559 6.846286 -38.961831 0.000000 0.000000 0.000000 -22.583412 -10.092942 -1.393003 -29.756717 -13.057432 -0.955206 -33.233572 -71.747235 23.404559 0.000000 0.000000 0.000000 1.775704 27.672593 10.993060 26.556309 31.786100 2.838230 -32.390833 18.366525 -3.169340 0.000000 0.000000 0.000000 
0.220426 0.896426 0.583759 -0.758809 -0.723576 3.046130 17.312784 1.590283 -29.365557 -7.194246 2.320882 41.625758 0.200797 -0.732519 -2.440231 0.000000 0.000000 0.000000 -19.996162 -2.807888 -45.345680 15.530971 -8.893120 62.712754 -2.636028 -10.146786 12.558383 0.000000 0.000000 0.000000 -5.058995 0.479694 58.097939 17.044210 -3.842534 -21.992677 9.560734 16.883669 32.001582 -3.361033 6.327018 -38.277116 0.000000 0.000000 0.000000 -24.290330 -9.231500 -1.583631 -27.668816 -12.255238 -1.214873 -36.283370 -72.775519 26.887094 0.000000 0.000000 0.000000 4.591163 27.426971 12.062503 24.989449 32.785567 2.342022 -29.746067 21.747842 -3.811173 0.000000 0.000000 0.000000 
0.203557 0.927732 0.597310 -1.562703 -2.631583 4.486411 18.957006 1.709466 -23.807160 -6.659418 1.991016 32.701141 -1.368409 -2.486068 0.921414 0.000000 0.000000 0.000000 -19.065229 -1.894345 -44.788605 16.169876 -8.240900 58.693225 -3.640530 -12.795104 16.590728 0.000000 0.000000 0.000000 -4.279910 0.540939 54.390877 16.184206 -3.926762 -20.101609 10.348653 15.492216 30.317917 -5.541270 6.673491 -39.505799 0.000000 0.000000 0.000000 -25.013910 -8.807971 -1.326440 -27.843319 -12.426659 -1.217151 -35.059119 -73.173091 26.716381 0.000000 0.000000 0.000000 4.153255 25.286632 10.939439 28.895293 33.672954 3.308495 -27.839395 26.085897 -4.318892 0.000000 0.000000 0.000000 
0.178950 0.939392 0.612514 -1.792907 -4.667729 4.929286 20.783307 1.827270 -19.345580 -6.536295 2.027177 29.388369 -1.530723 -2.046020 2.644202 0.000000 0.000000 0.000000 -17.594829 -0.812612 -42.715904 15.784836 -6.651867 53.040116 -7.777733 -19.915890 17.327316 0.000000 0.000000 0.000000 -4.630637 1.146098 50.735259 18.221856 -4.487701 -20.003331 7.818565 14.374712 30.629209 -3.737866 5.686819 -38.774797 0.000000 0.000000 0.000000 -24.273441 -8.700535 -0.483740 -28.658093 -12.946789 -1.427189 -25.309863 -75.376118 20.492941 0.000000 0.000000 0.000000 6.800026 23.094405 10.753739 30.359567 34.603602 3.470033 -25.196230 29.025636 -4.354640 0.000000 0.000000 0.000000 
0.147127 0.930436 0.631880 -1.521330 -8.406894 4.812290 22.067864 1.604951 -12.375875 -6.924759 2.233569 24.634741 1.038038 2.833258 2.015160 0.000000 0.000000 0.000000 -15.565102 0.546211 -40.173514 14.143332 -4.335744 49.522419 -11.048819 -25.616328 15.706871 0.000000 0.000000 0.000000 -6.012373 2.309208 45.678926 19.618391 -6.008893 -14.318168 4.804707 14.160369 25.325596 -4.713693 5.879465 -36.003077 0.000000 0.000000 0.000000 -26.313160 -8.736523 -0.186277 -27.127329 -10.749616 -1.596475 -14.900299 -76.368428 13.087096 0.000000 0.000000 0.000000 11.963083 22.765733 12.075908 29.715311 30.754093 2.164381 -26.564200 33.674312 -5.615143 0.000000 0.000000 0.000000 
